<svg viewBox="0 0 200 150" fill="none" xmlns="http://www.w3.org/2000/svg">
    <path
        d="M77.7 41.028C86.38 24.448 91.116 8.68396 111.96 5.78396C130.064 3.26396 151.2 13.908 163.2 27.012C186.532 52.436 167.18 109.664 130.628 104.324C105.916 100.724 97.136 94.2799 73.512 102.616C57.912 108.116 37.308 108.372 25.24 94.668C12.884 80.6359 23.496 71.4159 37.664 65.8679C53.756 59.5999 67.936 59.664 77.7 41.028Z"
        fill="#9D4EDD" />
    <path opacity="0.9"
        d="M77.7 41.028C86.38 24.448 91.116 8.68396 111.96 5.78396C130.064 3.26396 151.2 13.908 163.2 27.012C186.532 52.436 167.18 109.664 130.628 104.324C105.916 100.724 97.136 94.2799 73.512 102.616C57.912 108.116 37.308 108.372 25.24 94.668C12.884 80.6359 23.496 71.4159 37.664 65.8679C53.756 59.5999 67.936 59.664 77.7 41.028Z"
        fill="white" />
    <path
        d="M100 149.024C142.833 149.024 177.556 146.997 177.556 144.496C177.556 141.995 142.833 139.968 100 139.968C57.167 139.968 22.444 141.995 22.444 144.496C22.444 146.997 57.167 149.024 100 149.024Z"
        fill="#F5F5F5" />
    <path
        d="M98.184 35.124C98.728 41.924 106.584 50.756 109.096 53.428C109.195 53.5339 109.314 53.6183 109.447 53.676C109.58 53.7337 109.723 53.7635 109.868 53.7635C110.013 53.7635 110.156 53.7337 110.289 53.676C110.422 53.6183 110.541 53.5339 110.64 53.428C113.16 50.756 121.008 41.92 121.552 35.124C121.571 34.9153 121.528 34.7058 121.429 34.521C121.33 34.3363 121.18 34.1844 120.996 34.084L110.372 28.352C110.217 28.2673 110.044 28.2228 109.868 28.2228C109.692 28.2228 109.518 28.2673 109.364 28.352L98.74 34.084C98.5568 34.1852 98.4068 34.3372 98.3081 34.5218C98.2095 34.7063 98.1664 34.9155 98.184 35.124Z"
        fill="#9D4EDD" />
    <path opacity="0.3"
        d="M109.08 50.8519C105.88 47.2519 101.24 41.1999 100.132 36.3839C100.082 36.1601 100.104 35.926 100.196 35.7159C100.288 35.5058 100.445 35.3306 100.644 35.2159L109.34 30.2159C109.501 30.1237 109.684 30.0751 109.87 30.0751C110.056 30.0751 110.238 30.1237 110.4 30.2159L119.096 35.1999C119.3 35.317 119.46 35.4978 119.551 35.7147C119.642 35.9315 119.659 36.1723 119.6 36.3999C118.496 41.2239 113.872 47.2519 110.656 50.8679C110.556 50.9785 110.434 51.0667 110.297 51.1265C110.161 51.1863 110.013 51.2165 109.864 51.215C109.715 51.2135 109.568 51.1803 109.433 51.1177C109.298 51.0551 109.177 50.9645 109.08 50.8519Z"
        fill="#9D4EDD" />
    <path opacity="0.3"
        d="M109.08 50.8519C105.88 47.2519 101.24 41.1999 100.132 36.3839C100.082 36.1601 100.104 35.926 100.196 35.7159C100.288 35.5058 100.445 35.3306 100.644 35.2159L109.34 30.2159C109.501 30.1237 109.684 30.0751 109.87 30.0751C110.056 30.0751 110.238 30.1237 110.4 30.2159L119.096 35.1999C119.3 35.317 119.46 35.4978 119.551 35.7147C119.642 35.9315 119.659 36.1723 119.6 36.3999C118.496 41.2239 113.872 47.2519 110.656 50.8679C110.556 50.9785 110.434 51.0667 110.297 51.1265C110.161 51.1863 110.013 51.2165 109.864 51.215C109.715 51.2135 109.568 51.1803 109.433 51.1177C109.298 51.0551 109.177 50.9645 109.08 50.8519Z"
        fill="white" />
    <path
        d="M108.684 43.552C108.605 43.5522 108.527 43.5367 108.454 43.5065C108.382 43.4763 108.315 43.432 108.26 43.376L105.296 40.4C105.19 40.2863 105.132 40.1359 105.135 39.9804C105.138 39.825 105.201 39.6767 105.311 39.5667C105.421 39.4568 105.569 39.3938 105.724 39.3911C105.88 39.3884 106.03 39.4461 106.144 39.552L108.684 42.088L114.684 36.108C114.797 35.9967 114.949 35.9342 115.108 35.9342C115.267 35.9342 115.419 35.9967 115.532 36.108C115.588 36.1635 115.633 36.2295 115.663 36.3023C115.693 36.3751 115.709 36.4532 115.709 36.532C115.709 36.6109 115.693 36.689 115.663 36.7618C115.633 36.8346 115.588 36.9006 115.532 36.956L109.132 43.356C109.075 43.4178 109.005 43.467 108.928 43.5007C108.851 43.5345 108.768 43.5519 108.684 43.552Z"
        fill="white" />
    <path
        d="M133.868 59.732H78.3999C75.7489 59.732 73.5999 61.881 73.5999 64.532V137.292C73.5999 139.943 75.7489 142.092 78.3999 142.092H133.868C136.519 142.092 138.668 139.943 138.668 137.292V64.532C138.668 61.881 136.519 59.732 133.868 59.732Z"
        fill="#263238" />
    <path
        d="M137.604 59.7319H82.1359C79.4849 59.7319 77.3359 61.881 77.3359 64.5319V137.292C77.3359 139.943 79.4849 142.092 82.1359 142.092H137.604C140.255 142.092 142.404 139.943 142.404 137.292V64.5319C142.404 61.881 140.255 59.7319 137.604 59.7319Z"
        fill="#9D4EDD" />
    <path
        d="M88.704 142.096H83.304C83.1383 142.096 83.004 142.23 83.004 142.396V143.264C83.004 143.43 83.1383 143.564 83.304 143.564H88.704C88.8697 143.564 89.004 143.43 89.004 143.264V142.396C89.004 142.23 88.8697 142.096 88.704 142.096Z"
        fill="#263238" />
    <path
        d="M136.432 142.096H131.032C130.866 142.096 130.732 142.23 130.732 142.396V143.264C130.732 143.43 130.866 143.564 131.032 143.564H136.432C136.598 143.564 136.732 143.43 136.732 143.264V142.396C136.732 142.23 136.598 142.096 136.432 142.096Z"
        fill="#263238" />
    <path opacity="0.2"
        d="M137.604 59.7319H82.1359C79.4849 59.7319 77.3359 61.881 77.3359 64.5319V137.292C77.3359 139.943 79.4849 142.092 82.1359 142.092H137.604C140.255 142.092 142.404 139.943 142.404 137.292V64.5319C142.404 61.881 140.255 59.7319 137.604 59.7319Z"
        fill="black" />
    <g style="mix-blend-mode:color-dodge" opacity="0.4">
        <path
            d="M131.068 132.596H88.6679C88.1824 132.595 87.717 132.402 87.3737 132.058C87.0303 131.715 86.837 131.25 86.8359 130.764V71.068C86.8359 70.5817 87.0288 70.1153 87.3723 69.7711C87.7157 69.4269 88.1817 69.233 88.6679 69.232H131.068C131.554 69.233 132.02 69.4269 132.364 69.7711C132.707 70.1153 132.9 70.5817 132.9 71.068V130.764C132.899 131.25 132.706 131.715 132.362 132.058C132.019 132.402 131.553 132.595 131.068 132.596ZM88.6679 69.432C88.2347 69.433 87.8196 69.6059 87.5137 69.9125C87.2078 70.2192 87.0359 70.6348 87.0359 71.068V130.764C87.0359 130.978 87.0782 131.19 87.1602 131.389C87.2422 131.587 87.3624 131.766 87.5139 131.918C87.6655 132.07 87.8454 132.19 88.0434 132.272C88.2414 132.354 88.4536 132.396 88.6679 132.396H131.068C131.501 132.396 131.916 132.224 132.222 131.918C132.528 131.612 132.7 131.197 132.7 130.764V71.068C132.7 70.6348 132.528 70.2192 132.222 69.9125C131.916 69.6059 131.501 69.433 131.068 69.432H88.6679Z"
            fill="#E6E6E6" />
    </g>
    <path
        d="M132.004 130.764V71.0639C132.004 70.5492 131.587 70.1319 131.072 70.1319H88.668C88.1532 70.1319 87.736 70.5492 87.736 71.0639V130.764C87.736 131.279 88.1532 131.696 88.668 131.696H131.072C131.587 131.696 132.004 131.279 132.004 130.764Z"
        fill="#9D4EDD" />
    <path opacity="0.1"
        d="M132.004 130.764V71.0639C132.004 70.5492 131.587 70.1319 131.072 70.1319H88.668C88.1532 70.1319 87.736 70.5492 87.736 71.0639V130.764C87.736 131.279 88.1532 131.696 88.668 131.696H131.072C131.587 131.696 132.004 131.279 132.004 130.764Z"
        fill="white" />
    <path d="M143.8 76.7119H143.4V80.0879H143.8V76.7119Z" fill="#9D4EDD" />
    <path d="M143.8 64.5319H143.4V73.1559H143.8V64.5319Z" fill="#9D4EDD" />
    <path opacity="0.1"
        d="M109.868 115.72C117.401 115.72 123.508 109.613 123.508 102.08C123.508 94.5467 117.401 88.4399 109.868 88.4399C102.335 88.4399 96.228 94.5467 96.228 102.08C96.228 109.613 102.335 115.72 109.868 115.72Z"
        fill="black" />
    <path
        d="M109.868 81.8239C111.708 81.8239 113.2 80.3321 113.2 78.4919C113.2 76.6517 111.708 75.1599 109.868 75.1599C108.028 75.1599 106.536 76.6517 106.536 78.4919C106.536 80.3321 108.028 81.8239 109.868 81.8239Z"
        fill="#9D4EDD" />
    <path opacity="0.6"
        d="M109.848 81.8159C111.688 81.8159 113.18 80.3242 113.18 78.4839C113.18 76.6437 111.688 75.1519 109.848 75.1519C108.008 75.1519 106.516 76.6437 106.516 78.4839C106.516 80.3242 108.008 81.8159 109.848 81.8159Z"
        fill="white" />
    <path
        d="M109.868 81.1239C109.347 81.1239 108.838 80.9695 108.406 80.6803C107.973 80.3911 107.635 79.98 107.436 79.4991C107.237 79.0182 107.185 78.4889 107.286 77.9784C107.388 77.4678 107.639 76.9989 108.007 76.6308C108.375 76.2627 108.844 76.012 109.354 75.9104C109.865 75.8089 110.394 75.861 110.875 76.0602C111.356 76.2594 111.767 76.5968 112.056 77.0296C112.346 77.4624 112.5 77.9713 112.5 78.4919C112.499 79.1896 112.221 79.8584 111.728 80.3518C111.234 80.8452 110.566 81.1228 109.868 81.1239ZM109.868 76.0599C109.387 76.0599 108.917 76.2025 108.517 76.4697C108.117 76.737 107.805 77.1168 107.621 77.5612C107.437 78.0056 107.389 78.4946 107.483 78.9663C107.576 79.4381 107.808 79.8714 108.148 80.2115C108.488 80.5517 108.922 80.7833 109.393 80.8771C109.865 80.971 110.354 80.9228 110.799 80.7387C111.243 80.5547 111.623 80.243 111.89 79.843C112.157 79.4431 112.3 78.9729 112.3 78.4919C112.299 77.8472 112.042 77.2292 111.586 76.7734C111.131 76.3175 110.513 76.0609 109.868 76.0599Z"
        fill="#9D4EDD" />
    <path
        d="M87.6799 77.9719H86.1959C85.8689 77.9719 85.6039 78.2369 85.6039 78.5639V86.6839C85.6039 87.0108 85.8689 87.2759 86.1959 87.2759H87.6799C88.0068 87.2759 88.2719 87.0108 88.2719 86.6839V78.5639C88.2719 78.2369 88.0068 77.9719 87.6799 77.9719Z"
        fill="#9D4EDD" />
    <path opacity="0.6"
        d="M87.6799 77.9719H86.1959C85.8689 77.9719 85.6039 78.2369 85.6039 78.5639V86.6839C85.6039 87.0108 85.8689 87.2759 86.1959 87.2759H87.6799C88.0068 87.2759 88.2719 87.0108 88.2719 86.6839V78.5639C88.2719 78.2369 88.0068 77.9719 87.6799 77.9719Z"
        fill="white" />
    <path
        d="M87.6799 114.552H86.1959C85.8689 114.552 85.6039 114.817 85.6039 115.144V123.264C85.6039 123.591 85.8689 123.856 86.1959 123.856H87.6799C88.0068 123.856 88.2719 123.591 88.2719 123.264V115.144C88.2719 114.817 88.0068 114.552 87.6799 114.552Z"
        fill="#9D4EDD" />
    <path opacity="0.6"
        d="M87.6799 114.552H86.1959C85.8689 114.552 85.6039 114.817 85.6039 115.144V123.264C85.6039 123.591 85.8689 123.856 86.1959 123.856H87.6799C88.0068 123.856 88.2719 123.591 88.2719 123.264V115.144C88.2719 114.817 88.0068 114.552 87.6799 114.552Z"
        fill="white" />
    <path
        d="M109.868 114.556C117.401 114.556 123.508 108.449 123.508 100.916C123.508 93.3828 117.401 87.276 109.868 87.276C102.335 87.276 96.228 93.3828 96.228 100.916C96.228 108.449 102.335 114.556 109.868 114.556Z"
        fill="#9D4EDD" />
    <path opacity="0.6"
        d="M109.868 114.556C117.401 114.556 123.508 108.449 123.508 100.916C123.508 93.3828 117.401 87.276 109.868 87.276C102.335 87.276 96.228 93.3828 96.228 100.916C96.228 108.449 102.335 114.556 109.868 114.556Z"
        fill="white" />
    <path d="M103.12 93.5971L102.554 94.1628L116.622 108.231L117.188 107.666L103.12 93.5971Z" fill="#9D4EDD" />
    <path d="M116.622 93.5971L102.554 107.666L103.12 108.231L117.188 94.1627L116.622 93.5971Z" fill="#9D4EDD" />
    <path opacity="0.2" d="M116.576 93.5514L102.508 107.62L103.073 108.186L117.142 94.1171L116.576 93.5514Z"
        fill="black" />
    <path opacity="0.2" d="M103.076 93.5542L102.511 94.1199L116.579 108.189L117.145 107.623L103.076 93.5542Z"
        fill="black" />
    <path
        d="M109.828 111.224C107.78 111.225 105.777 110.618 104.073 109.481C102.37 108.343 101.042 106.726 100.257 104.834C99.473 102.941 99.2673 100.859 99.6665 98.85C100.066 96.8408 101.052 94.9952 102.5 93.5465C103.948 92.0978 105.793 91.1111 107.802 90.7112C109.811 90.3112 111.894 90.5161 113.786 91.2998C115.679 92.0835 117.296 93.4109 118.434 95.114C119.572 96.8171 120.18 98.8195 120.18 100.868C120.178 103.613 119.087 106.245 117.146 108.187C115.205 110.128 112.573 111.221 109.828 111.224ZM109.828 91.3119C107.938 91.3111 106.09 91.8709 104.518 92.9204C102.946 93.97 101.72 95.4621 100.997 97.2082C100.273 98.9542 100.083 100.876 100.451 102.73C100.819 104.584 101.729 106.287 103.065 107.624C104.402 108.96 106.104 109.871 107.958 110.24C109.812 110.609 111.734 110.42 113.48 109.697C115.226 108.974 116.719 107.749 117.769 106.177C118.819 104.606 119.38 102.758 119.38 100.868C119.378 98.3348 118.371 95.906 116.58 94.1145C114.789 92.323 112.361 91.3151 109.828 91.3119Z"
        fill="#9D4EDD" />
    <path
        d="M112.888 103.932C114.58 102.24 114.58 99.4972 112.888 97.8054C111.196 96.1137 108.453 96.1136 106.762 97.8054C105.07 99.4972 105.07 102.24 106.762 103.932C108.453 105.624 111.196 105.624 112.888 103.932Z"
        fill="#9D4EDD" />
    <path opacity="0.2"
        d="M109.828 111.224C107.78 111.225 105.777 110.618 104.073 109.481C102.37 108.343 101.042 106.726 100.257 104.834C99.473 102.941 99.2673 100.859 99.6665 98.85C100.066 96.8408 101.052 94.9952 102.5 93.5465C103.948 92.0978 105.793 91.1111 107.802 90.7112C109.811 90.3112 111.894 90.5161 113.786 91.2998C115.679 92.0835 117.296 93.4109 118.434 95.114C119.572 96.8171 120.18 98.8195 120.18 100.868C120.178 103.613 119.087 106.245 117.146 108.187C115.205 110.128 112.573 111.221 109.828 111.224ZM109.828 91.3119C107.938 91.3111 106.09 91.8709 104.518 92.9204C102.946 93.97 101.72 95.4621 100.997 97.2082C100.273 98.9542 100.083 100.876 100.451 102.73C100.819 104.584 101.729 106.287 103.065 107.624C104.402 108.96 106.104 109.871 107.958 110.24C109.812 110.609 111.734 110.42 113.48 109.697C115.226 108.974 116.719 107.749 117.769 106.177C118.819 104.606 119.38 102.758 119.38 100.868C119.378 98.3348 118.371 95.906 116.58 94.1145C114.789 92.323 112.361 91.3151 109.828 91.3119Z"
        fill="black" />
    <path opacity="0.2"
        d="M112.888 103.932C114.58 102.24 114.58 99.4972 112.888 97.8054C111.196 96.1137 108.453 96.1136 106.762 97.8054C105.07 99.4972 105.07 102.24 106.762 103.932C108.453 105.624 111.196 105.624 112.888 103.932Z"
        fill="black" />
    <path
        d="M76.4 43.1039C77.364 45.3399 78.36 47.6039 79.368 49.8319C80.376 52.0599 81.408 54.2839 82.512 56.4079C82.796 56.9279 83.068 57.4679 83.364 57.9599L83.58 58.3359L83.692 58.5239C83.6808 58.5086 83.6673 58.4951 83.652 58.4839C83.604 58.4559 83.652 58.5119 83.748 58.5799C84.115 58.7776 84.5125 58.9127 84.924 58.9799C85.4531 59.0785 85.9872 59.1479 86.524 59.1879C87.656 59.2639 88.852 59.2639 90.052 59.2279L91.868 59.1519L93.676 59.0319L94.144 61.2079C91.6735 62.0329 89.1097 62.5462 86.512 62.7359C85.8111 62.781 85.1079 62.7743 84.408 62.7159C83.5821 62.6601 82.7712 62.4681 82.008 62.1479C81.4793 61.9168 81.0041 61.5791 80.612 61.1559C80.4946 61.0305 80.3863 60.8968 80.288 60.7559L80.148 60.5479L79.876 60.1479C79.496 59.5959 79.176 59.0439 78.832 58.4879C77.536 56.2679 76.376 54.0199 75.288 51.7519C74.2 49.4839 73.188 47.1959 72.236 44.8479L76.4 43.1039Z"
        fill="#7F3E3B" />
    <path
        d="M71.088 42.7999C70.18 45.4559 75.5159 53.2679 75.5159 53.2679L80.628 50.4359C79.7599 47.9989 78.7351 45.6206 77.5599 43.3159C75.7559 39.9359 72.084 39.8839 71.088 42.7999Z"
        fill="#9D4EDD" />
    <path opacity="0.5"
        d="M71.088 42.7999C70.18 45.4559 75.5159 53.2679 75.5159 53.2679L80.628 50.4359C79.7599 47.9989 78.7351 45.6206 77.5599 43.3159C75.7559 39.9359 72.084 39.8839 71.088 42.7999Z"
        fill="white" />
    <path
        d="M71.012 43.1319C72.156 42.5839 73.476 43.0439 74.86 45.2359C76.244 47.4279 77.428 51.0879 77.56 52.1319L75.516 53.2639C75.516 53.2639 70.588 46.0479 71.012 43.1319Z"
        fill="#9D4EDD" />
    <path opacity="0.4"
        d="M71.012 43.1319C72.156 42.5839 73.476 43.0439 74.86 45.2359C76.244 47.4279 77.428 51.0879 77.56 52.1319L75.516 53.2639C75.516 53.2639 70.588 46.0479 71.012 43.1319Z"
        fill="white" />
    <path
        d="M74.54 40.768C74.54 40.768 78.348 49.724 75.6 66.4H59.744C59.548 63.964 60.668 52.088 57.92 40.616C59.6633 40.2765 61.4271 40.052 63.2 39.944C65.4448 39.8159 67.6951 39.8159 69.94 39.944C71.4921 40.101 73.0299 40.3764 74.54 40.768Z"
        fill="#9D4EDD" />
    <path opacity="0.5"
        d="M74.54 40.768C74.54 40.768 78.348 49.724 75.6 66.4H59.744C59.548 63.964 60.668 52.088 57.92 40.616C59.6633 40.2765 61.4271 40.052 63.2 39.944C65.4448 39.8159 67.6951 39.8159 69.94 39.944C71.4921 40.101 73.0299 40.3764 74.54 40.768Z"
        fill="white" />
    <path
        d="M61.464 43.448C61.792 45.336 61.356 49.848 59.736 55.072C59.6092 50.5963 59.0885 46.1404 58.18 41.756V41.732C59.22 41.628 61.148 41.676 61.464 43.448Z"
        fill="#9D4EDD" />
    <path opacity="0.4"
        d="M61.464 43.448C61.792 45.336 61.356 49.848 59.736 55.072C59.6092 50.5963 59.0885 46.1404 58.18 41.756V41.732C59.22 41.628 61.148 41.676 61.464 43.448Z"
        fill="white" />
    <path d="M54.1241 137.452L56.4761 139.556L60.9521 134.896L58.6001 132.792L54.1241 137.452Z" fill="#7F3E3B" />
    <path
        d="M57.124 138.712L54.268 136.8C54.2213 136.763 54.1635 136.743 54.104 136.743C54.0444 136.743 53.9866 136.763 53.94 136.8L51.756 139.004C51.7134 139.052 51.6819 139.11 51.6639 139.171C51.6458 139.233 51.6416 139.299 51.6515 139.362C51.6615 139.426 51.6853 139.487 51.7213 139.54C51.7573 139.594 51.8047 139.639 51.86 139.672C53.684 141.076 55 142.136 56.04 143.304C57.24 144.668 57.888 144.864 60.688 144.864C61.984 144.864 62.716 143.772 62.188 143.604C57.524 142.128 58.772 141.484 57.636 139.32C57.5208 139.076 57.3444 138.867 57.124 138.712Z"
        fill="#263238" />
    <path d="M60.9481 134.896L58.6441 137.3L56.2921 135.192L58.5961 132.792L60.9481 134.896Z" fill="#5E2B2B" />
    <path d="M62.564 134.964H65.528L65.328 138.504H62.364L62.564 134.964Z" fill="#5E2B2B" />
    <path
        d="M75.6001 66.3999C75.6001 66.3999 78.7241 88.0239 79.7881 99.7919C80.6441 109.236 60.2241 137.392 60.2241 137.392L56.2761 133.676C56.2761 133.676 71.1881 108.432 70.0401 97.9199C68.9321 87.7399 65.1601 66.3879 65.1601 66.3879L75.6001 66.3999Z"
        fill="#9D4EDD" />
    <path opacity="0.5"
        d="M75.6001 66.3999C75.6001 66.3999 78.7241 88.0239 79.7881 99.7919C80.6441 109.236 60.2241 137.392 60.2241 137.392L56.2761 133.676C56.2761 133.676 71.1881 108.432 70.0401 97.9199C68.9321 87.7399 65.1601 66.3879 65.1601 66.3879L75.6001 66.3999Z"
        fill="black" />
    <path d="M62.176 141.828H65.144L65.528 134.964H62.564L62.176 141.828Z" fill="#7F3E3B" />
    <path
        d="M65.2999 141.488H61.9679C61.9124 141.486 61.8582 141.506 61.817 141.543C61.7758 141.58 61.751 141.632 61.7479 141.688L61.5839 144.324C61.5834 144.393 61.5964 144.461 61.6223 144.525C61.6481 144.589 61.6863 144.647 61.7346 144.696C61.7829 144.745 61.8403 144.784 61.9037 144.811C61.9671 144.837 62.0351 144.851 62.1039 144.852C63.2639 144.832 63.8199 144.764 65.3039 144.764C66.2039 144.764 70.0359 144.86 71.2839 144.86C72.5319 144.86 72.4839 143.628 71.9639 143.516C69.5999 143.016 66.6679 142.316 65.8279 141.668C65.6777 141.549 65.4914 141.486 65.2999 141.488Z"
        fill="#263238" />
    <path d="M93.052 59.168L95.776 58.088L96.44 60.888C96.44 60.888 93.332 61.816 92.84 60.92L93.052 59.168Z"
        fill="#7F3E3B" />
    <path d="M98.0839 58.652L98.8839 60.184L96.4399 60.88L95.7759 58.088L98.0839 58.652Z" fill="#7F3E3B" />
    <path
        d="M70.596 39.9999L69.948 39.9319C67.7032 39.8039 65.4529 39.8039 63.208 39.9319L62.808 39.9559L62.844 40.0639C62.876 40.1479 63.62 42.1279 67.888 42.1279C69.748 42.1279 70.72 41.8199 70.944 41.1519C70.9898 40.9462 70.9818 40.7321 70.9208 40.5304C70.8599 40.3286 70.748 40.146 70.596 39.9999Z"
        fill="#E6E6E6" />
    <path
        d="M63.6 32.3519C64.1 34.5199 64.664 38.4959 63.2 39.9519C63.2 39.9519 63.832 41.7479 67.864 41.7479C72.296 41.7479 69.94 39.9519 69.94 39.9519C67.5 39.3759 67.504 37.5799 67.864 35.8959L63.6 32.3519Z"
        fill="#7F3E3B" />
    <path
        d="M65.348 33.796L67.872 35.884C67.7811 36.2783 67.7249 36.6798 67.704 37.084C66.776 36.952 65.472 35.936 65.34 34.968C65.2693 34.5802 65.2721 34.1827 65.348 33.796Z"
        fill="#5E2B2B" />
    <path d="M69.936 25.9C71.284 26.772 71.476 30.964 69.504 31.564C67.532 32.164 67.384 24.252 69.936 25.9Z"
        fill="#263238" />
    <path
        d="M62.664 30.0799C63.568 32.8799 63.952 34.5719 65.776 35.7199C66.3644 36.0981 67.0451 36.3082 67.7443 36.3274C68.4435 36.3467 69.1346 36.1745 69.743 35.8293C70.3514 35.4841 70.8538 34.9792 71.1959 34.3691C71.538 33.759 71.7068 33.067 71.684 32.3679C71.648 29.6759 70.176 25.5319 67.076 25.0119C66.4079 24.8829 65.7176 24.9317 65.0743 25.1534C64.431 25.3752 63.8572 25.762 63.4104 26.2752C62.9636 26.7884 62.6595 27.41 62.5285 28.0777C62.3975 28.7455 62.4443 29.4359 62.664 30.0799Z"
        fill="#7F3E3B" />
    <path
        d="M59.432 27.444C60.4 29.2 62.832 33.2 64 32.8C65.168 32.4 65.172 29.2 63.672 27.172C63.672 27.172 75.556 28.372 75.796 21.62C76.04 14.712 70.316 21.396 65.28 23.328C59.8 25.448 57.156 23.312 59.432 27.444Z"
        fill="#263238" />
    <path
        d="M59.9401 24.996C59.9175 24.9914 59.8972 24.9792 59.8826 24.9613C59.868 24.9434 59.86 24.9211 59.86 24.898C59.86 24.8749 59.868 24.8526 59.8826 24.8347C59.8972 24.8169 59.9175 24.8046 59.9401 24.8C60.1201 24.76 60.3161 24.724 60.5281 24.684C62.1217 24.4239 63.6756 23.9615 65.1521 23.308C66.6521 22.636 68.2241 21.484 69.6161 20.468C70.5004 19.7929 71.4218 19.1679 72.3761 18.596C72.3996 18.5842 72.4267 18.5818 72.452 18.5892C72.4772 18.5967 72.4987 18.6134 72.5121 18.636C72.5184 18.6476 72.5224 18.6602 72.5238 18.6733C72.5252 18.6864 72.5241 18.6997 72.5203 18.7123C72.5166 18.725 72.5105 18.7367 72.5022 18.747C72.4939 18.7572 72.4837 18.7657 72.4721 18.772C71.5245 19.34 70.6097 19.961 69.7321 20.632C68.3361 21.652 66.7521 22.808 65.2321 23.492C63.7429 24.1516 62.1756 24.618 60.5681 24.88C60.3561 24.92 60.1681 24.956 59.9801 24.996H59.9401Z"
        fill="#263238" />
    <path
        d="M62.168 33.5C62.7044 34.0213 63.4201 34.3176 64.168 34.328C65.16 34.328 65.368 33.392 64.836 32.608C64.364 31.904 63.284 31.056 62.412 31.436C61.54 31.816 61.512 32.856 62.168 33.5Z"
        fill="#7F3E3B" />
    <path opacity="0.2"
        d="M70.044 97.9319C69.472 92.6879 68.192 84.4719 67.092 77.7439C67.668 76.6159 69.284 74.3319 69.284 74.3319C70.732 79.3359 73.88 98.1999 69.388 123.676C64.708 131.22 60.228 137.404 60.228 137.404L59.6 127.676C63.94 119.54 70.84 105.2 70.044 97.9319Z"
        fill="black" />
    <path
        d="M67.22 29.9239C67.28 30.1559 67.452 30.3239 67.62 30.2839C67.788 30.2439 67.848 30.0319 67.788 29.7999C67.728 29.5679 67.556 29.3999 67.388 29.4439C67.22 29.4879 67.16 29.6919 67.22 29.9239Z"
        fill="#263238" />
    <path
        d="M69.8601 29.3439C69.9201 29.5759 70.0921 29.7439 70.2601 29.7039C70.4281 29.6639 70.4881 29.4559 70.4281 29.2239C70.3681 28.9919 70.2001 28.8239 70.0281 28.8639C69.8561 28.9039 69.8001 29.1119 69.8601 29.3439Z"
        fill="#263238" />
    <path
        d="M69.0521 29.644C69.513 30.2929 70.0577 30.8779 70.6721 31.384C70.5385 31.5324 70.374 31.6498 70.1901 31.7279C70.0063 31.806 69.8077 31.8429 69.6081 31.836L69.0521 29.644Z"
        fill="#630F0F" />
    <path
        d="M68.6 32.6799C68.1128 32.6848 67.6401 32.5145 67.268 32.1999C67.2614 32.1936 67.2562 32.1861 67.2525 32.1778C67.2489 32.1694 67.2469 32.1605 67.2467 32.1514C67.2465 32.1423 67.2481 32.1332 67.2514 32.1247C67.2548 32.1162 67.2597 32.1085 67.266 32.1019C67.2723 32.0954 67.2799 32.0901 67.2882 32.0865C67.2965 32.0828 67.3055 32.0808 67.3146 32.0806C67.3237 32.0805 67.3327 32.0821 67.3412 32.0854C67.3497 32.0887 67.3574 32.0936 67.364 32.0999C67.5982 32.2902 67.8725 32.4251 68.1662 32.4944C68.4599 32.5636 68.7655 32.5655 69.06 32.4999C69.0689 32.4978 69.0782 32.4975 69.0873 32.499C69.0963 32.5005 69.105 32.5037 69.1128 32.5085C69.1206 32.5134 69.1274 32.5197 69.1327 32.5271C69.1381 32.5346 69.1419 32.543 69.144 32.5519C69.1461 32.5609 69.1464 32.5701 69.145 32.5792C69.1435 32.5882 69.1402 32.5969 69.1354 32.6047C69.1306 32.6125 69.1243 32.6193 69.1168 32.6246C69.1094 32.63 69.1009 32.6338 69.092 32.6359C68.9302 32.6689 68.7651 32.6837 68.6 32.6799Z"
        fill="#263238" />
    <path
        d="M66.1719 29.256C66.1534 29.2598 66.1344 29.2598 66.1159 29.256C66.0988 29.2491 66.0832 29.2387 66.0702 29.2256C66.0572 29.2124 66.047 29.1967 66.0403 29.1795C66.0336 29.1623 66.0304 29.1439 66.031 29.1254C66.0316 29.1069 66.036 29.0887 66.0439 29.072C66.1293 28.8693 66.2628 28.6906 66.4328 28.5512C66.6029 28.4117 66.8044 28.3159 67.0199 28.272C67.0568 28.2684 67.0936 28.2787 67.1232 28.3009C67.1529 28.3231 67.1731 28.3556 67.1799 28.392C67.1827 28.4104 67.1818 28.4292 67.1773 28.4473C67.1728 28.4653 67.1647 28.4823 67.1535 28.4972C67.1423 28.5121 67.1283 28.5247 67.1122 28.5341C67.0962 28.5435 67.0784 28.5496 67.0599 28.552C66.8907 28.5902 66.7332 28.6686 66.6009 28.7808C66.4686 28.8929 66.3653 29.0354 66.2999 29.196C66.2861 29.2168 66.2669 29.2334 66.2443 29.244C66.2217 29.2545 66.1967 29.2587 66.1719 29.256Z"
        fill="#263238" />
    <path
        d="M70.752 28.196C70.7312 28.1962 70.7107 28.1916 70.692 28.1826C70.6732 28.1735 70.6568 28.1604 70.644 28.144C70.5315 28.0041 70.3889 27.8911 70.2269 27.8136C70.0649 27.7361 69.8876 27.6959 69.708 27.696C69.6711 27.6983 69.6347 27.6863 69.6064 27.6624C69.5781 27.6386 69.56 27.6048 69.556 27.568C69.5537 27.5311 69.5657 27.4947 69.5896 27.4664C69.6134 27.4381 69.6472 27.4201 69.684 27.416C69.9089 27.4114 70.1318 27.4585 70.3356 27.5535C70.5395 27.6485 70.7189 27.7889 70.86 27.964C70.8834 27.9934 70.8944 28.0307 70.8907 28.0681C70.8869 28.1054 70.8688 28.1399 70.84 28.164C70.8152 28.1845 70.7841 28.1958 70.752 28.196Z"
        fill="#263238" />
    <path
        d="M59.976 56.6719C59.1793 56.4036 58.4147 56.0481 57.696 55.6119C57.5395 55.5123 57.3946 55.3956 57.264 55.2639C57.448 54.4039 57.688 53.5399 57.948 52.6719C58.208 51.8039 58.528 50.9159 58.86 50.0399C59.192 49.1639 59.544 48.2919 59.912 47.4279C60.096 46.9959 60.284 46.5639 60.476 46.1359L61.052 44.8919L57.052 42.8439C56.788 43.3439 56.572 43.7839 56.356 44.2599C56.14 44.7359 55.956 45.1959 55.74 45.6679C55.3453 46.6172 54.9853 47.5785 54.66 48.5519C53.982 50.5389 53.5062 52.5893 53.24 54.6719V54.7799V54.9879C53.23 55.1317 53.23 55.276 53.24 55.4199C53.2561 55.7103 53.3072 55.9977 53.392 56.2759C53.5497 56.7663 53.8056 57.2195 54.144 57.6079C54.6418 58.1501 55.2394 58.5915 55.904 58.9079C56.9278 59.3908 58.0103 59.7377 59.124 59.9399C61.1522 60.3252 63.2166 60.4862 65.28 60.4199L65.464 58.1999C63.6067 57.7968 61.7744 57.2866 59.976 56.6719Z"
        fill="#7F3E3B" />
    <path
        d="M66.352 142C66.0824 141.994 65.8143 141.959 65.552 141.896C65.54 141.892 65.529 141.885 65.52 141.876C65.511 141.867 65.5042 141.856 65.5 141.844C65.4982 141.831 65.4998 141.818 65.5047 141.806C65.5096 141.794 65.5177 141.784 65.528 141.776C65.624 141.708 66.464 141.136 66.824 141.28C66.8649 141.296 66.901 141.321 66.929 141.355C66.9571 141.389 66.976 141.429 66.984 141.472C67.0016 141.536 67.0027 141.604 66.9873 141.669C66.972 141.734 66.9406 141.794 66.896 141.844C66.7398 141.96 66.5463 142.016 66.352 142ZM65.744 141.8C66.276 141.904 66.672 141.888 66.812 141.752C66.8408 141.717 66.8603 141.676 66.8687 141.632C66.8771 141.588 66.8741 141.543 66.86 141.5C66.8564 141.479 66.8475 141.459 66.8342 141.442C66.821 141.426 66.8037 141.412 66.784 141.404C66.572 141.32 66.044 141.6 65.744 141.8Z"
        fill="#9D4EDD" />
    <path
        d="M65.576 141.896C65.5656 141.9 65.5543 141.9 65.544 141.896C65.534 141.891 65.5254 141.884 65.5191 141.875C65.5128 141.866 65.5089 141.855 65.508 141.844C65.508 141.808 65.44 140.956 65.74 140.668C65.7774 140.631 65.8229 140.603 65.8728 140.587C65.9227 140.57 65.9758 140.565 66.028 140.572C66.0865 140.574 66.1427 140.596 66.1876 140.634C66.2325 140.671 66.2636 140.723 66.276 140.78C66.344 141.104 65.904 141.72 65.608 141.896H65.576ZM65.976 140.696C65.9485 140.696 65.9213 140.701 65.8958 140.711C65.8704 140.721 65.8473 140.737 65.828 140.756C65.6632 141.043 65.5945 141.375 65.632 141.704C65.876 141.496 66.192 141.024 66.144 140.8C66.144 140.756 66.112 140.708 66.008 140.696H65.976Z"
        fill="#9D4EDD" />
    <path
        d="M59.048 140.316C58.5191 140.235 58.0141 140.04 57.568 139.744C57.5549 139.738 57.5444 139.727 57.5386 139.714C57.5327 139.701 57.5318 139.686 57.536 139.672C57.5398 139.658 57.5475 139.646 57.5582 139.637C57.5689 139.628 57.582 139.622 57.596 139.62C57.756 139.62 59.16 139.516 59.424 139.836C59.4477 139.862 59.4641 139.894 59.4718 139.928C59.4795 139.962 59.4782 139.998 59.468 140.032C59.4557 140.087 59.4304 140.138 59.3942 140.181C59.358 140.224 59.312 140.258 59.26 140.28C59.1921 140.305 59.1203 140.317 59.048 140.316ZM57.828 139.74C58.472 140.096 58.98 140.252 59.208 140.14C59.241 140.127 59.2703 140.105 59.2932 140.078C59.3162 140.051 59.3323 140.019 59.34 139.984C59.3471 139.972 59.3508 139.958 59.3508 139.944C59.3508 139.93 59.3471 139.916 59.34 139.904C59.176 139.744 58.4 139.716 57.828 139.74Z"
        fill="#9D4EDD" />
    <path
        d="M57.6001 139.756C57.5888 139.756 57.5778 139.753 57.568 139.747C57.5582 139.741 57.55 139.733 57.5441 139.724C57.5391 139.714 57.5366 139.703 57.5366 139.692C57.5366 139.681 57.5391 139.67 57.5441 139.66C57.5681 139.612 58.1001 138.528 58.7841 138.86C58.9721 138.952 58.9881 139.06 58.9721 139.136C58.9041 139.46 58.0161 139.752 57.6081 139.764L57.6001 139.756ZM58.5241 138.928C58.1561 138.928 57.8401 139.396 57.7241 139.612C58.1521 139.56 58.8081 139.292 58.8481 139.1C58.8481 139.06 58.8161 139.016 58.7281 138.972C58.6646 138.941 58.5946 138.926 58.5241 138.928Z"
        fill="#9D4EDD" />
    <path d="M65.004 58.168L67.44 57.5L67.772 60.576C67.772 60.576 65.372 61.296 64.776 60.036L65.004 58.168Z"
        fill="#7F3E3B" />
    <path
        d="M64.956 58.232C65.4661 57.6788 65.7649 56.9636 65.8 56.212L66.424 56.552C66.424 56.552 66.548 57.932 66.304 58.328C66.06 58.724 64.956 58.232 64.956 58.232Z"
        fill="#7F3E3B" />
    <path d="M68.58 57.804L68.432 60.576H67.772L67.436 57.5L68.58 57.804Z" fill="#7F3E3B" />
    <path d="M56.04 133.464L60.468 137.632L61.896 136.1L56.828 131.484L56.04 133.464Z" fill="#9D4EDD" />
    <path opacity="0.1" d="M56.04 133.464L60.468 137.632L61.896 136.1L56.828 131.484L56.04 133.464Z" fill="black" />
    <path
        d="M69.964 66.4C69.964 66.4 70.244 89.06 69.764 97.552C69.24 106.848 66.6 137.652 66.6 137.652H61.168C61.168 137.652 61.332 107.6 61.004 98.396C60.648 88.396 59.728 66.396 59.728 66.396L69.964 66.4Z"
        fill="#9D4EDD" />
    <path opacity="0.5"
        d="M69.964 66.4C69.964 66.4 70.244 89.06 69.764 97.552C69.24 106.848 66.6 137.652 66.6 137.652H61.168C61.168 137.652 61.332 107.6 61.004 98.396C60.648 88.396 59.728 66.396 59.728 66.396L69.964 66.4Z"
        fill="black" />
    <path d="M60.9521 137.652H66.8201L67.1441 135.588L60.6681 135.912L60.9521 137.652Z" fill="#9D4EDD" />
    <path opacity="0.1" d="M60.9521 137.652H66.8201L67.1441 135.588L60.6681 135.912L60.9521 137.652Z" fill="black" />
    <path
        d="M57.92 40.616C55.12 41.016 52.252 51.3 52.252 51.3L59 53.868C59 53.868 60.696 49.468 61.856 46.016C63.072 42.42 60.916 40.176 57.92 40.616Z"
        fill="#9D4EDD" />
    <path opacity="0.5"
        d="M57.92 40.616C55.12 41.016 52.252 51.3 52.252 51.3L59 53.868C59 53.868 60.696 49.468 61.856 46.016C63.072 42.42 60.916 40.176 57.92 40.616Z"
        fill="white" />
</svg>